<svg xmlns="http://www.w3.org/2000/svg" viewBox="0 0 320 140" role="img" aria-label="EPA logo">
  <g fill="#71B95A" stroke="#5AA04A" stroke-linejoin="round">
    <path
      d="M18 18h80c10 0 18 8 18 18v10c0 10-8 18-18 18H58v16h34c9 0 16 7 16 16s-7 16-16 16H58v10c0 10-8 18-18 18s-18-8-18-18V18Z"
      stroke-width="5"
    />
    <path
      d="M132 18h54c31 0 54 21 54 50 0 25-16 43-40 49l15 17c7 7 7 18 0 25-7 7-18 7-25 0l-37-41c-5-6-7-14-3-22 3-8 10-13 19-13h17c10 0 18-7 18-15 0-9-8-15-18-15h-18v69c0 10-8 18-18 18s-18-8-18-18V18Z"
      stroke-width="5"
    />
    <path
      d="M172 42c14-10 28-11 40-5-8 15-21 25-40 28 1-8 1-15 0-23Z"
      fill="#153A20"
      stroke="#153A20"
      stroke-width="3"
    />
    <path
      d="M246 18h18c8 0 16 5 18 13l39 87c5 11-1 22-12 26-11 4-22-2-26-13l-4-11h-49l-5 12c-5 10-16 15-27 11-10-5-15-16-11-27l40-85c3-8 10-13 19-13Zm7 36-11 30h23l-12-30Z"
      stroke-width="5"
    />
  </g>
  <g fill="#6B6B6B">
    <rect x="20" y="112" width="200" height="4" rx="2" opacity="0.9" />
    <rect x="20" y="122" width="168" height="4" rx="2" opacity="0.7" />
  </g>
</svg>
