<svg xmlns="http://www.w3.org/2000/svg" viewBox="0 0 420 190" role="img" aria-label="EPA white logo">
  <g fill="#FFFFFF">
    <path d="M33 28h100c14 0 25 11 25 25v16c0 14-11 25-25 25H75v18h46c13 0 23 10 23 23s-10 23-23 23H75v7c0 14-11 25-25 25s-25-11-25-25V28Zm42 39v18h43V67H75Zm0 54v18h31v-18H75Z"/>
    <path d="M175 28h63c38 0 67 25 67 60 0 28-18 50-46 58l22 24c9 10 8 25-1 34-10 9-25 9-34-1l-41-45c-7-7-9-17-5-27 4-9 13-15 24-15h17c13 0 23-9 23-21s-10-21-23-21h-24v91c0 14-11 25-25 25s-25-11-25-25V28Zm78 38c-13-8-28-6-45 8v17c20-3 35-12 45-25Z"/>
    <path d="M329 28h24c11 0 21 7 25 17l47 121c5 13-2 27-15 32-13 5-27-1-32-14l-5-14h-56l-6 14c-5 13-19 19-32 14-13-5-19-19-14-32l48-121c4-10 14-17 26-17Zm16 46-16 46h31l-15-46Z"/>
  </g>
  <g fill="#FFFFFF" opacity="0.96">
    <rect x="36" y="141" width="245" height="8" rx="4"/>
    <rect x="36" y="159" width="213" height="8" rx="4"/>
  </g>
</svg>
