<?xml version="1.0" standalone="no"?>
<!DOCTYPE svg PUBLIC "-//W3C//DTD SVG 20010904//EN"
 "http://www.w3.org/TR/2001/REC-SVG-20010904/DTD/svg10.dtd">
<svg version="1.0" xmlns="http://www.w3.org/2000/svg"
 width="981.000000pt" height="639.000000pt" viewBox="0 0 981.000000 639.000000"
 preserveAspectRatio="xMidYMid meet">
<metadata>
Created by potrace 1.16, written by Peter Selinger 2001-2019
</metadata>
<g transform="translate(0.000000,639.000000) scale(0.100000,-0.100000)"
fill="#000000" stroke="none">
<path d="M0 3195 l0 -3195 4905 0 4905 0 0 3195 0 3195 -4905 0 -4905 0 0
-3195z m3384 1571 c116 -52 205 -186 194 -296 l-3 -35 -507 -3 -508 -2 0 -210
0 -210 328 0 c374 0 389 -2 471 -76 78 -70 122 -196 86 -250 l-15 -24 -435 0
-435 0 0 -225 0 -225 408 0 c455 0 465 -1 541 -66 106 -91 143 -257 65 -293
-33 -15 -1191 -16 -1249 0 -114 29 -176 89 -209 199 -14 47 -16 154 -16 867 0
710 2 818 15 843 l16 30 599 0 599 0 55 -24z m1505 8 c321 -66 517 -234 586
-499 20 -73 20 -295 1 -367 -43 -164 -127 -284 -262 -375 -175 -117 -338 -153
-695 -153 -283 0 -259 24 -259 -257 0 -128 -4 -222 -10 -234 -22 -40 -61 -49
-219 -49 -95 0 -160 4 -176 12 -57 26 -55 -11 -55 970 0 883 1 904 20 936 l20
32 487 0 c402 0 501 -3 562 -16z m1580 1 c34 -17 75 -64 95 -108 8 -18 33 -72
55 -120 23 -49 41 -90 41 -92 0 -2 14 -33 30 -69 17 -36 44 -96 60 -132 17
-36 30 -67 30 -69 0 -2 15 -36 34 -77 63 -136 96 -209 96 -213 0 -2 18 -43 41
-92 57 -124 65 -142 87 -193 28 -64 59 -134 98 -218 19 -40 34 -75 34 -77 0
-4 23 -56 81 -184 16 -35 39 -87 51 -115 12 -28 25 -55 30 -60 10 -12 10 -67
0 -82 -34 -52 -246 -44 -352 14 -94 51 -142 113 -205 267 -20 50 -42 95 -48
100 -8 6 -170 9 -454 7 l-443 -2 -23 -53 c-13 -28 -37 -86 -53 -127 -23 -59
-42 -88 -89 -135 -75 -76 -128 -95 -275 -102 -97 -5 -107 -3 -132 17 -33 26
-36 60 -9 116 17 36 27 58 79 174 11 25 30 68 42 95 13 28 31 68 40 90 10 22
27 63 40 90 46 103 63 141 82 185 22 51 30 69 87 193 23 49 41 90 41 92 0 2
13 32 29 67 58 127 81 179 81 183 0 2 16 39 36 82 79 169 94 202 94 207 0 4
16 41 36 84 94 204 102 216 146 245 41 27 45 27 200 27 120 0 166 -4 187 -15z
m-2345 -2331 c12 -5 13 -11 6 -25 -7 -12 -31 -23 -70 -31 -33 -6 -60 -16 -60
-20 0 -5 12 -18 26 -31 14 -12 37 -41 51 -64 l25 -43 81 0 c89 0 118 9 94 28
-8 7 -27 13 -43 15 -16 2 -30 7 -32 13 -4 16 27 44 49 44 29 0 189 -72 189
-85 0 -22 -26 -35 -70 -35 -26 0 -65 -9 -88 -20 -46 -22 -180 -28 -199 -9 -8
8 -17 8 -31 0 -11 -6 -46 -11 -77 -11 -44 0 -57 -4 -62 -17 -3 -10 -15 -30
-25 -45 -17 -25 -25 -28 -79 -28 -32 0 -59 4 -59 8 0 4 17 14 38 21 44 16 82
40 82 51 0 5 -16 14 -35 20 -29 10 -35 16 -35 39 0 34 23 81 51 107 21 19 21
19 45 -10 14 -15 28 -41 31 -57 5 -28 8 -29 59 -29 29 0 55 4 59 9 6 11 -51
68 -77 76 -21 7 -30 30 -22 60 6 23 45 45 114 64 45 12 46 12 64 5z m615 -18
c14 -17 23 -230 11 -262 -25 -64 -151 -94 -191 -45 -20 25 -26 86 -9 96 6 3
10 15 10 26 0 10 5 19 10 19 7 0 9 -13 5 -32 -9 -51 13 -73 70 -72 74 2 78 11
66 143 -12 132 -5 167 28 127z m565 -63 c13 -136 12 -133 65 -133 43 0 48 3
66 36 22 41 66 76 82 66 6 -4 18 -27 27 -51 14 -41 13 -47 -2 -73 -18 -31 -25
-33 -70 -17 -25 9 -36 8 -54 -5 -27 -19 -111 -21 -125 -3 -17 21 -36 213 -23
237 17 32 27 16 34 -57z m429 53 c11 -16 12 -27 5 -34 -6 -6 -7 -29 -3 -60 l7
-50 61 29 c34 16 69 29 77 29 26 0 60 -30 75 -66 16 -39 55 -49 55 -14 0 26
56 89 86 96 37 9 54 -12 54 -67 l0 -49 54 0 c63 0 86 7 86 25 0 14 -31 25 -73
25 l-28 0 21 30 c24 34 60 39 106 15 16 -8 46 -18 67 -21 20 -4 40 -11 43 -16
10 -16 -18 -38 -48 -38 -17 0 -27 -4 -23 -10 3 -5 44 -10 91 -10 66 0 84 3 84
14 0 8 -4 18 -10 21 -17 10 -11 44 9 55 22 11 25 6 36 -67 12 -75 0 -83 -116
-83 -96 0 -100 1 -111 25 -13 28 -21 31 -40 12 -31 -32 -59 -35 -346 -36 -303
-2 -332 2 -332 39 0 16 7 20 34 20 39 0 60 20 51 49 -15 47 -22 127 -14 144
13 23 24 22 42 -7z m-3199 -8 c3 -13 6 -49 6 -81 0 -84 10 -97 73 -97 52 0
100 21 84 36 -4 4 -26 9 -48 10 -51 2 -55 7 -32 38 22 31 55 33 118 6 26 -11
57 -20 69 -20 31 0 37 -9 23 -31 -7 -11 -23 -19 -39 -19 -16 0 -28 -4 -28 -10
0 -15 170 -13 174 3 23 86 43 101 48 35 l3 -43 64 -3 c85 -4 98 1 78 31 -15
23 -7 67 11 67 17 0 33 -57 30 -106 l-3 -49 -95 1 c-52 0 -104 1 -115 2 -11 0
-53 -1 -93 -4 -93 -7 -120 -1 -128 31 l-6 25 -34 -30 c-30 -26 -42 -30 -94
-30 -36 0 -64 5 -72 14 -20 19 -43 213 -27 232 16 20 26 18 33 -8z m4186 -75
c51 -35 61 -67 38 -118 -15 -33 -77 -53 -113 -37 -29 13 -33 46 -10 76 8 11
15 32 15 46 0 27 16 50 35 50 6 0 22 -8 35 -17z m-2988 -47 c27 -77 -2 -118
-69 -95 -28 9 -37 8 -52 -5 -20 -18 -83 -21 -113 -5 -14 8 -23 8 -31 0 -6 -6
-52 -11 -109 -11 -92 0 -101 2 -123 25 -26 25 -34 78 -15 90 6 3 10 1 10 -6 0
-7 7 -21 17 -31 14 -15 32 -18 120 -18 l103 0 0 28 c1 33 24 67 40 57 6 -4 10
-23 8 -44 -3 -33 -1 -36 26 -39 40 -5 76 6 76 23 0 19 69 87 83 82 6 -2 19
-25 29 -51z m1200 -8 l15 -43 58 -3 c32 -2 65 0 73 3 25 9 -8 36 -46 37 -38 1
-42 20 -10 42 33 23 49 20 143 -25 78 -37 84 -42 72 -60 -9 -14 -23 -19 -58
-19 -26 0 -66 -9 -90 -20 -27 -12 -66 -20 -101 -20 -37 0 -58 -4 -58 -12 0 -6
-11 -26 -26 -45 -23 -30 -29 -33 -80 -33 -29 0 -54 5 -54 10 0 6 5 10 10 10
23 0 100 43 100 57 0 8 -13 19 -29 24 -16 6 -32 16 -35 24 -8 23 14 86 40 112
32 31 57 18 76 -39z m-2457 -12 c12 -95 11 -96 -121 -96 -109 0 -116 1 -139
25 -25 25 -36 95 -15 95 6 0 10 -5 10 -12 0 -6 7 -20 17 -30 14 -15 32 -18
121 -18 95 0 104 1 97 18 -4 9 -10 29 -13 45 -3 22 -1 27 16 27 17 0 22 -9 27
-54z m2515 -366 c0 -16 -7 -20 -35 -20 -28 0 -35 -4 -35 -19 0 -12 8 -21 22
-23 31 -4 34 -26 4 -38 -23 -8 -26 -15 -26 -60 0 -27 5 -50 10 -50 6 0 10 -7
10 -15 0 -11 -12 -15 -44 -15 -44 0 -66 12 -46 25 16 10 12 111 -4 124 -15 13
-17 10 49 84 31 35 95 40 95 7z m590 -89 c0 -84 3 -111 15 -121 24 -20 7 -30
-53 -30 -31 0 -68 0 -82 -1 -79 -3 -79 169 0 185 15 2 37 2 49 -1 26 -7 29 21
5 55 -15 22 -14 22 25 22 l41 0 0 -109z m-2326 89 c20 -7 26 -17 26 -38 0 -42
-9 -45 -40 -12 -33 35 -50 37 -75 11 -17 -19 -16 -21 16 -40 19 -12 41 -21 50
-21 8 0 25 -9 37 -20 61 -57 -14 -141 -112 -125 -52 9 -64 19 -60 51 3 30 15
45 21 26 10 -27 36 -42 74 -42 35 0 39 3 39 24 0 20 -8 27 -47 40 -59 20 -83
42 -83 76 0 26 29 62 60 73 24 9 67 8 94 -3z m295 -18 c33 -24 53 -91 41 -133
-15 -51 -36 -74 -80 -89 -110 -36 -206 77 -153 180 35 67 130 88 192 42z m431
13 c12 -7 13 -65 2 -65 -5 0 -19 11 -32 25 -29 30 -49 31 -84 4 -22 -17 -26
-29 -26 -68 0 -39 5 -53 26 -75 27 -26 77 -36 89 -16 9 15 35 12 35 -4 0 -8
-20 -22 -45 -32 -40 -15 -51 -15 -86 -4 -54 18 -79 55 -79 117 0 84 59 138
143 129 26 -3 52 -8 57 -11z m-1592 -60 c13 -33 28 -68 33 -77 5 -10 9 -24 9
-32 0 -7 7 -19 15 -26 29 -24 18 -40 -30 -40 -45 0 -45 0 -43 33 3 32 2 32
-44 35 -49 3 -50 3 -52 -43 -1 -20 -26 -31 -51 -21 -12 4 -12 11 4 38 11 18
32 65 47 103 33 85 42 97 68 93 14 -2 27 -20 44 -63z m634 45 c-19 -18 -22
-31 -22 -104 0 -65 3 -85 15 -90 33 -12 12 -26 -40 -26 -56 0 -67 8 -40 30 11
9 15 33 15 88 0 64 -3 79 -22 99 l-21 23 68 0 69 0 -22 -20z m1545 -10 c9 -23
18 -30 37 -30 35 0 33 -16 -3 -23 -25 -5 -29 -11 -33 -49 -6 -54 6 -78 38 -78
33 0 27 -21 -9 -33 -18 -6 -35 -4 -54 5 -26 12 -28 18 -31 78 -2 47 -7 69 -20
79 -12 10 -14 15 -4 18 7 3 19 18 27 34 20 37 38 37 52 -1z m1386 -25 c10 -27
22 -59 27 -70 6 -16 29 -67 48 -107 2 -5 -17 -8 -42 -8 -46 0 -46 0 -44 33 l3
32 -50 0 -50 0 3 -32 c2 -31 0 -33 -33 -33 -33 0 -46 12 -26 24 5 3 19 32 31
63 55 142 62 154 89 151 19 -2 29 -14 44 -53z m-3257 -23 c7 -9 14 -39 14 -67
0 -27 3 -60 6 -72 6 -21 3 -23 -34 -23 -40 0 -62 13 -42 25 5 3 10 31 10 61 0
58 -16 77 -49 57 -19 -12 -29 -113 -12 -113 6 0 11 -7 11 -15 0 -11 -11 -15
-39 -15 -40 0 -61 13 -41 25 17 10 13 125 -5 131 -34 13 -13 26 34 22 28 -3
56 -1 63 4 19 12 69 1 84 -20z m1516 -5 c10 -12 17 -31 15 -42 -2 -17 -11 -20
-57 -23 -67 -4 -80 -14 -54 -43 16 -18 26 -20 67 -15 57 8 56 -7 0 -31 -46
-19 -86 -9 -118 29 -35 41 -31 93 10 134 30 30 110 24 137 -9z m228 18 c6 -8
9 -23 5 -35 -7 -21 -29 -27 -40 -10 -3 6 -15 10 -26 10 -16 0 -19 -7 -19 -54
0 -30 5 -58 10 -61 23 -14 7 -25 -34 -25 -44 0 -66 12 -46 25 13 8 13 122 0
130 -25 15 -8 27 33 23 23 -3 51 -1 62 3 30 12 41 10 55 -6z m886 -10 c8 -7
14 -27 14 -44 0 -31 0 -31 -54 -31 -63 0 -72 -7 -49 -40 14 -19 22 -22 59 -16
58 8 60 -16 3 -33 -56 -17 -102 -1 -123 43 -9 19 -16 39 -16 46 0 28 34 80 58
89 32 12 90 5 108 -14z m944 8 c3 -3 -2 -10 -10 -16 -9 -7 -14 -20 -12 -30 7
-32 -26 -57 -75 -57 -30 0 -43 -4 -43 -14 0 -9 17 -15 56 -18 84 -7 108 -47
58 -93 -22 -21 -37 -25 -85 -25 -39 0 -63 5 -73 16 -18 18 -21 40 -5 49 6 4 7
19 4 36 -4 18 -2 36 6 45 9 11 9 18 1 26 -26 26 -6 81 33 91 21 5 137 -3 145
-10z m213 -14 c10 -12 17 -32 15 -43 -3 -18 -11 -21 -60 -24 -48 -2 -58 -6
-58 -21 0 -26 42 -45 84 -37 30 6 35 4 30 -8 -3 -9 -23 -20 -45 -26 -45 -12
-101 6 -118 38 -26 48 -3 123 43 143 33 14 89 2 109 -22z m245 15 c19 -13 22
-24 22 -80 0 -36 4 -64 10 -64 6 0 10 -7 10 -15 0 -11 -11 -15 -39 -15 -40 0
-61 13 -41 25 14 9 13 98 -2 113 -17 17 -45 15 -52 -4 -10 -25 -7 -102 4 -109
20 -12 -1 -25 -41 -25 -28 0 -39 4 -39 15 0 8 5 15 10 15 6 0 10 27 10 60 0
45 -4 62 -15 66 -29 12 -3 24 46 23 27 -1 52 1 56 4 11 12 38 8 61 -9z m236 6
c14 -5 26 -16 26 -25 0 -18 -33 -20 -59 -3 -43 27 -73 -62 -34 -104 17 -19 58
-24 68 -8 9 15 25 12 25 -6 0 -8 -16 -22 -36 -30 -47 -20 -98 -4 -119 36 -21
40 -19 61 8 101 29 43 73 57 121 39z m156 -9 c0 -6 -4 -13 -10 -16 -10 -6 2
-34 29 -68 14 -16 16 -15 28 15 8 18 11 43 8 55 -5 20 -2 23 24 23 31 0 49
-14 31 -25 -10 -6 -21 -29 -65 -137 -15 -37 -36 -75 -45 -83 -24 -22 -84 -16
-88 8 -3 13 4 17 31 17 62 0 65 19 16 117 -24 49 -45 91 -47 96 -2 4 17 7 42
7 25 0 46 -4 46 -9z"/>
<path d="M4955 4505 c-85 -42 -147 -59 -285 -74 -211 -24 -293 -51 -374 -123
-100 -87 -134 -177 -83 -219 31 -26 55 -23 107 11 71 48 125 70 225 90 142 29
285 80 348 123 44 30 43 13 -2 -32 -43 -43 -123 -86 -201 -110 -184 -56 -258
-92 -335 -163 -56 -52 -123 -138 -164 -210 -54 -98 -89 -290 -58 -317 20 -16
37 -6 37 21 0 43 25 101 62 142 51 59 111 86 190 86 101 0 238 20 312 46 160
56 279 176 338 341 29 84 51 236 43 310 -12 112 -52 131 -160 78z"/>
<path d="M6256 4285 c-26 -58 -32 -72 -54 -125 -5 -14 -17 -41 -25 -60 -40
-92 -197 -478 -197 -483 0 -4 135 -7 300 -7 165 0 300 4 300 8 0 7 -178 448
-210 520 -6 12 -14 32 -19 45 -9 23 -40 94 -58 137 -11 24 -12 23 -37 -35z"/>
<path d="M3432 1857 c-17 -18 -22 -35 -22 -78 1 -67 16 -89 62 -89 30 0 38 5
48 30 18 44 7 120 -20 142 -29 24 -42 23 -68 -5z"/>
</g>
</svg>
