<svg xmlns="http://www.w3.org/2000/svg" viewBox="0 0 256 256" role="img" aria-label="EPA favicon">
  <rect width="256" height="256" rx="36" fill="#0B0B0B" />
  <g fill="#71B95A" stroke="#5AA04A" stroke-linejoin="round">
    <path
      d="M28 48h66c10 0 18 8 18 18v12c0 10-8 18-18 18H60v16h28c9 0 16 7 16 16s-7 16-16 16H60v20h36c10 0 18 8 18 18s-8 18-18 18H28V48Z"
      stroke-width="6"
    />
    <path
      d="M132 48h48c29 0 50 20 50 48 0 26-18 45-44 48l16 18c7 7 7 18 0 25-7 8-18 8-26 1l-35-40c-6-6-7-15-4-23 3-8 11-13 20-13h23c9 0 15-5 15-14 0-8-6-14-15-14h-12v100c0 10-8 18-18 18s-18-8-18-18V48Z"
      stroke-width="6"
    />
    <path
      d="M169 77c13-10 26-11 38-4-8 15-20 24-38 28 1-9 1-16 0-24Z"
      fill="#0B0B0B"
      stroke="#0B0B0B"
      stroke-width="4"
    />
    <path
      d="M214 48h14c8 0 15 5 18 13l37 121c3 10-3 20-13 23s-20-2-23-12l-5-18h-45l-6 18c-3 10-14 15-24 12-10-4-15-14-12-24l39-120c3-8 10-13 20-13Zm6 47-12 43h25l-13-43Z"
      stroke-width="6"
    />
  </g>
</svg>
